<svg
    viewBox="0 0 512 512"
    height="128"
    width="128"
    xmlns="http://www.w3.org/2000/svg">
    <path
        d="M447.057 208.291c5.523 0 10-4.478 10-10s-4.477-10-10-10h-32.423c-5.523 0-10 4.478-10 10v80.001c0 5.523 4.477 10 10 10s10-4.478 10-10v-30.758h19.847c5.523 0 10-4.478 10-10s-4.477-10-10-10h-19.847v-19.242h22.423zM348.172 188.29h-22.657c-5.527 0-10.01 4.49-10 10.019V276.992c0 7.269 4.89 11.3 10.162 11.3h.038c.685-.003 16.84-.065 23.295-.179 24.028-.419 41.467-21.372 41.467-49.822 0-29.907-17.002-50.001-42.305-50.001zm.487 79.826c-2.99.052-8.268.094-13.017.124-.1-31.311-.041-20.327-.11-59.95h12.639c16.446 0 22.306 15.497 22.306 30 0 14.656-6.746 29.563-21.818 29.826zM267.753 188.29h-22.275c-5.523 0-10 4.487-10 10v80.001c0 5.523 4.477 10 10 10s10-4.478 10-10v-24.804c4.493-.023 9.441-.044 12.275-.044 18.205 0 33.017-14.613 33.017-32.576s-14.811-32.577-33.017-32.577zm0 45.152c-2.825 0-7.708.021-12.175.044-.065-13.112-.023-8.008-.07-25.195h12.245c7.056 0 13.018 5.759 13.018 12.575 0 6.817-5.961 12.576-13.018 12.576z" />
    <path
        d="M480.626 140.509h-55.743V15c0-8.284-6.716-15-14.999-15H174.631a15.07 15.07 0 00-10.606 4.393l-95.437 95.43a15.064 15.064 0 00-4.394 10.607v147.505h-5.181c-8.284 0-14.999 6.716-14.999 15v103.973H15.017c-12.6 0-19.586 14.661-11.65 24.448l85.222 105.095c6.005 7.404 17.306 7.39 23.3 0l19.825-24.448h278.169c8.284 0 14.999-6.716 14.999-15V336.554h55.743c17.3 0 31.374-14.075 31.374-31.375V171.885c.001-17.301-14.074-31.376-31.373-31.376zM159.632 51.211V95.43H115.41l44.222-44.219zM46.492 406.909h12.522c8.284 0 14.999-6.716 14.999-15V287.936h52.451v103.973c0 8.284 6.716 15 14.999 15h12.522l-40.992 50.551-.004.005-12.751 15.724zm348.392 45.094H156.042l41.069-50.646c7.935-9.785.953-24.448-11.65-24.448h-28.998V272.936c0-8.284-6.716-15-14.999-15h-47.27V125.431h80.437c8.284 0 14.999-6.716 14.999-15V30h205.253v110.509H211.792c-17.3 0-31.375 14.075-31.375 31.376v133.294c0 17.3 14.075 31.375 31.375 31.375h183.092zm87.117-146.824c0 .758-.617 1.375-1.375 1.375H211.792a1.377 1.377 0 01-1.376-1.375V171.885c0-.759.617-1.376 1.376-1.376h268.834c.758 0 1.375.617 1.375 1.376z" />
</svg>